<?xml version="1.0"?>
<svg version="1.1" xmlns="http://www.w3.org/2000/svg" width="400" height="40" style=""><path fill="#0943b0" d="M29.2,33.2c0,0.2-0.15,0.3-0.375,0.3l-2.275,0c-0.45,0-0.75-0.125-0.975-0.5l-3.6-5.875l-1.925,0l0,5.75c0,0.375-0.15,0.625-0.575,0.625l-2.05,0c-0.425,0-0.6-0.2-0.6-0.625l0-15.95c0-0.55,0.125-0.725,0.675-0.725l3.7,0c2.175,0,4.475,0.325,5.8,1.85c0.8,0.925,1.2,2.15,1.2,3.5c0,2.3-1.225,4.1-3.225,4.975l4.1,6.325c0.075,0.125,0.125,0.25,0.125,0.35z M24.925,21.6c0-2.175-1.45-2.95-3.625-2.95l-1.25,0l0,6.05l1.55,0c2,0,3.325-1.075,3.325-3.1z M44.6375,33.025c0,0.3-0.2,0.475-0.5,0.475l-1.2,0c-1.3,0-1.875-0.625-2.05-1.475l-0.05,0c-0.625,0.925-2.25,1.775-3.625,1.775c-3.525,0-5.125-2.9-5.125-6.15c0-4.325,2.6-6.6,5.4-6.6c1.325,0,2.575,0.6,3.2,1.45l0.05-0.675c0.025-0.275,0.225-0.45,0.525-0.45l1.75,0c0.325,0,0.525,0.175,0.525,0.55l0,8.675c0,0.35,0.05,0.6,0.15,0.725c0.075,0.075,0.175,0.1,0.3,0.1l0.2,0c0.3,0,0.45,0.1,0.45,0.425l0,1.175z M40.5125,29.625l0-4.825c-0.5-0.725-1.525-1.275-2.475-1.275c-1.525,0-2.825,1.3-2.825,3.925c0,2.1,0.8,3.875,2.65,3.875c1.225,0,2.275-0.925,2.65-1.7z M59.8,27.275c0,1.9-0.575,3.625-1.625,4.85c-0.925,1.05-2.225,1.7-3.85,1.7c-1.15,0-2.3-0.425-3.025-1.175l0,5.6c0,0.5-0.225,0.65-0.65,0.65l-1.75,0c-0.4,0-0.6-0.225-0.6-0.65l0-16.3c0-0.425,0.2-0.575,0.6-0.575l1.5,0c0.425,0,0.65,0.1,0.675,0.475l0.025,0.675c0.725-0.825,2.15-1.45,3.5-1.45c1.65,0,2.8,0.625,3.625,1.525c1.075,1.175,1.575,2.925,1.575,4.675z M56.65,27.425c0-1.175-0.225-2.2-0.725-2.9c-0.475-0.675-1.175-1.025-2.05-1.025c-0.925,0-2.075,0.6-2.575,1.225l0,5.45c0.5,0.675,1.5,1.225,2.45,1.225c0.875,0,1.575-0.4,2-0.925c0.625-0.775,0.9-1.825,0.9-3.05z M74.6375,33c0,0.375-0.075,0.5-0.4,0.5l-2.2,0c-0.35,0-0.425-0.1-0.425-0.5l0-6.95c0-1.35-0.375-2.35-1.875-2.35c-0.975,0-2.225,0.525-3,1.2l0,8.1c0,0.375-0.1,0.5-0.475,0.5l-2.15,0c-0.3,0-0.4-0.125-0.4-0.45l0-16.525c0-0.45,0.2-0.575,0.55-0.625l1.725-0.225c0.1-0.025,0.225-0.025,0.325-0.025c0.275,0,0.425,0.125,0.425,0.475l0,6.275c1.05-0.875,2.625-1.35,3.95-1.35c2.8,0,3.95,1.775,3.95,4.475l0,7.475z M91.05,33.025c0,0.3-0.2,0.475-0.5,0.475l-1.2,0c-1.3,0-1.875-0.625-2.05-1.475l-0.05,0c-0.625,0.925-2.25,1.775-3.625,1.775c-3.525,0-5.125-2.9-5.125-6.15c0-4.325,2.6-6.6,5.4-6.6c1.325,0,2.575,0.6,3.2,1.45l0.05-0.675c0.025-0.275,0.225-0.45,0.525-0.45l1.75,0c0.325,0,0.525,0.175,0.525,0.55l0,8.675c0,0.35,0.05,0.6,0.15,0.725c0.075,0.075,0.175,0.1,0.3,0.1l0.2,0c0.3,0,0.45,0.1,0.45,0.425l0,1.175z M86.925,29.625l0-4.825c-0.5-0.725-1.525-1.275-2.475-1.275c-1.525,0-2.825,1.3-2.825,3.925c0,2.1,0.8,3.875,2.65,3.875c1.225,0,2.275-0.925,2.65-1.7z M105.3125,27.4c0,0.6-0.2,0.725-0.825,0.725l-7.325,0c0.2,1.925,1.6,3.25,3.575,3.25c1.05,0,2.15-0.25,3.075-0.6c0.1-0.025,0.175-0.075,0.275-0.075c0.175,0,0.3,0.1,0.35,0.3l0.35,1.275c0.025,0.125,0.05,0.225,0.05,0.3c0,0.175-0.1,0.3-0.4,0.425c-1.225,0.55-2.9,0.8-4.2,0.8c-3.925,0-6.25-2.5-6.25-6.4c0-3.75,2.475-6.35,6.2-6.35c1.525,0,2.775,0.575,3.65,1.5c1.15,1.2,1.475,2.775,1.475,4.475l0,0.375z M102.3375,26.15l0-0.275c-0.05-1.3-0.8-2.5-2.325-2.5c-1.625,0-2.6,1.3-2.8,2.775l5.125,0z M112.1,32.875c0,0.425-0.2,0.625-0.55,0.625l-1.9,0c-0.35,0-0.575-0.175-0.575-0.6l0-16.4c0-0.425,0.175-0.55,0.5-0.6l1.8-0.25c0.05,0,0.125-0.025,0.175-0.025c0.3,0,0.55,0.15,0.55,0.55l0,16.7z M120.6625,16.35l-0.2,3.6c-0.025,0.275-0.075,0.45-0.45,0.45l-1.275,0c-0.325,0-0.4-0.1-0.425-0.475l-0.2-3.6l0-0.05c0-0.3,0.125-0.4,0.425-0.4l1.7,0c0.325,0,0.425,0.1,0.425,0.4l0,0.075z M134.8,29.925c0,2.625-2.275,3.875-4.825,3.875c-1.3,0-2.725-0.375-3.85-0.875c-0.225-0.1-0.3-0.25-0.3-0.4c0-0.075,0.025-0.15,0.05-0.225l0.4-1.275c0.075-0.25,0.2-0.35,0.35-0.35c0.075,0,0.15,0,0.275,0.05c1.1,0.45,2.275,0.775,3.15,0.775c1.1,0,1.85-0.5,1.85-1.325c0-0.7-0.475-1.075-1.5-1.475l-1.975-0.75c-1.425-0.525-2.575-1.625-2.575-3.325c0-2.45,2.3-3.575,4.525-3.575c1.2,0,2.375,0.2,3.625,0.75c0.2,0.1,0.3,0.2,0.3,0.35c0,0.075-0.025,0.15-0.05,0.25l-0.425,1.35c-0.05,0.175-0.175,0.275-0.35,0.275c-0.075,0-0.175-0.025-0.25-0.05c-0.825-0.325-1.9-0.6-2.7-0.6c-1.05,0-1.575,0.575-1.575,1.15c0,0.55,0.275,0.9,1.225,1.275l2.25,0.925c1.325,0.55,2.375,1.575,2.375,3.2z"/><path fill="#d9a9cc" d="M163.84126,29.016q-1.68,0-2.828-0.77t-1.148-1.946q0-1.484,1.932-2.968q0.336-0.252,0.504-0.252t0.168,0.112q0,0.28-0.448,0.448q-1.568,1.26-1.568,2.548q0,0.924,0.84,1.554t2.1,0.63q2.744,0,5.18-2.632q1.26-1.372,1.26-3.164t-1.344-2.66q-1.12-0.784-3.024-0.784q-2.744,0-5.516,1.372q-3.416,1.652-6.174,5.138t-2.758,6.706q0,2.548,1.736,3.934t4.312,1.386q2.94,0,5.768-1.428q2.156-1.12,3.724-2.856q0.448-0.504,0.7-0.504q0.168,0,0.168,0.294t-0.308,0.602q-1.484,1.568-4.284,3.024q-3.444,1.82-6.93,1.82t-5.194-2.296q-1.148-1.512-1.148-3.612q0-0.924,0.224-1.988q0.756-3.584,3.976-6.972q2.324-2.436,5.516-3.794t6.048-1.358q1.512,0,2.632,0.364q3.052,0.952,3.052,3.836q0,1.764-1.036,3.052q-2.576,3.164-6.132,3.164z M177.56602,30.864q0,0.98-1.876,3.276q-2.212,2.716-3.78,2.716l-0.448,0q-0.728,0-1.148-0.756q-0.336-0.532-0.336-1.176q0-1.68,2.45-4.718t3.962-3.038q1.428,0,1.428,1.512q0,0.392-0.14,1.008q0.028,0.084,0.532,0.084t1.54-0.532q-0.028,0.476-2.212,1.372q0.028,0.112,0.028,0.252z M175.74602,29.408q-0.952,0-2.702,2.24t-1.75,3.304t0.672,1.064q1.204,0,3.052-2.184t1.848-3.136q-0.448-0.252-1.12-1.288z M181.49078,37.164q-0.308,0-0.56-0.084q-1.792-0.504-1.792-2.016q0-1.96,2.464-4.536t4.424-2.576q0.644,0,1.05,0.35t0.406,0.952t-0.364,1.26t-1.092,0.658t-0.728-0.448q0-0.308,0.378-0.938t0.378-0.672t-0.084-0.042q-0.784,0.084-2.142,1.12t-1.862,1.736l-1.092,1.596q-0.28,0.448-0.406,1.064t-0.126,0.924t0.35,0.7t0.994,0.392q1.4,0,3.472-1.638t3.192-3.122q0.14-0.168,0.336-0.168t0.196,0.112t-0.14,0.28q-1.54,2.044-3.682,3.57t-3.57,1.526z M194.26354,37.136q-2.212,0-3.752-3.5q-0.392,0.588-1.764,3.304q-1.008-0.392-1.008-1.064q0-1.204,3.612-6.608t4.956-6.356q0.112-0.084,0.448-0.084q0.868,0,0.868,0.448q0,0.224-1.946,2.52t-2.17,2.772q2.548-1.316,4.06-1.316q0.868,0,1.484,0.7q0.588,0.588,0.588,1.204l0,0.168q-0.224,1.596-2.24,2.632q-1.624,0.868-3.024,0.868t-1.96-0.364q-0.168-0.028-0.266,0.084t-0.042,0.28q0.784,3.472,2.604,3.472q0.952,0,2.45-1.064t3.122-2.996q0.196-0.196,0.35-0.196t0.154,0.154t-0.196,0.434q-1.512,1.848-2.856,2.912q-2.044,1.596-3.472,1.596z M198.29554,28.568q0-0.224-0.252-0.448t-0.532-0.224q-1.512,0-3.626,1.26t-2.59,2.856q0.252,0,1.344,0.084q1.26,0,3.304-1.036q2.352-1.176,2.352-2.492z M208.1003,27.784l4.032-0.056q0.084,0.056,0.084,0.084q0,0.252-3.486,0.7t-3.766,0.532q-0.532,0.476-1.96,2.842t-1.428,3.458q0,1.036,1.428,1.036q0.672,0,1.764-0.42t1.68-0.784q1.568-0.98,3.36-2.884q0.392-0.392,0.532-0.392q0.084,0,0.084,0.168t-0.42,0.672q-1.456,1.792-3.276,2.884q-2.184,1.344-4.172,1.344q-0.868,0-1.414-0.378t-0.546-1.526t1.008-3.15t1.54-2.982q-0.392,0.084-0.672,0.084q-0.812,0-0.812-0.644q0-0.476,0.672-0.672q0.084,0,0.252-0.028l1.624,0q0.504-0.644,1.148-1.484q0.784-1.008,1.064-1.008t0.7,0.224t0.42,0.532t-1.344,1.82q0.728,0.028,1.904,0.028z M219.64106,28.428l0.392-0.084q0.308,0,0.588,0.252t0.28,0.392t-1.736,2.702t-1.736,3.57q0,0.084,0.028,0.168q0.14,0.644,0.616,0.644q1.456,0,5.32-4.816q0.084-0.112,0.196-0.112t0.112,0.21t-0.252,0.546q-3.584,4.788-5.46,4.788q-0.252,0-0.476-0.084q-1.232-0.476-1.232-1.848q0-0.476,0.112-0.952l-1.736,1.68q-1.652,1.456-2.394,1.456t-1.414-0.476q-0.756-0.56-0.756-1.484q0-2.044,2.856-4.886t5.236-2.842q0.924,0,1.232,0.644q0.084,0.224,0.14,0.378t0.084,0.154z M211.26906,35.316q0,1.008,0.7,1.008q1.624,0,4.424-3.556l2.968-4.088q-0.224-0.392-0.728-0.392q-1.708,0-4.536,2.646t-2.828,4.382z M229.99182,25.642q0.378,0.266,0.378,0.63t-0.35,0.63t-0.77,0.266t-0.77-0.308t-0.35-0.7q0-0.784,1.064-0.784q0.42,0,0.798,0.266z M224.12582,37.108q-1.428,0-1.428-1.848q0-1.512,1.652-4.186t2.66-2.702q0.28,0,0.63,0.224t0.35,0.448q-0.14,0.196-0.336,0.434t-0.42,0.518t-0.616,0.798t-0.756,0.994q-2.1,2.716-2.1,3.738t0.7,1.022q0.588,0,1.596-0.644q2.352-1.456,3.724-3.192q0.504-0.644,0.686-0.644t0.182,0.224t-0.644,0.896t-1.022,1.064t-0.518,0.518t-0.518,0.476t-0.574,0.49t-0.56,0.42t-0.644,0.406t-0.644,0.294q-0.588,0.252-1.4,0.252z M232.69858,36.24q0.924,0,2.38-0.98t2.828-2.66q0.336-0.448,0.532-0.448t0.196,0.168t-1.148,1.456q-2.8,3.08-4.676,3.08q-0.924,0-1.568-0.434t-0.644-1.344t0.476-2.114q0.812-1.904,2.604-4.788q3.276-5.32,4.648-5.32q0.28,0,0.574,0.21t0.322,0.462q-0.644,0.868-2.478,3.332t-2.534,3.542t-1.05,1.61t-0.518,0.826t-0.392,0.77q-0.476,0.952-0.476,1.792t0.924,0.84z M267.0641,31.508q0,1.008-0.448,1.904q-0.952,2.016-3.64,3.36t-5.6,1.344q-4.424,0-6.02-3.024q-2.884,2.408-4.116,2.408q-0.224,0-0.392-0.084q-0.84-0.448-0.84-1.932t1.232-3.64t2.156-2.548q0.42-0.14,0.644-0.14q0.812,0,1.232,1.344l0.84,2.688q0.812-0.868,2.212-2.772l2.492-3.36q4.592-5.964,6.02-6.524q0.504-0.196,1.036-0.196t0.882,0.224t0.35,0.56q0,0.504-0.812,0.588q-0.84,0.476-3.206,2.786t-2.814,2.926q-3.136,4.368-5.796,6.72q1.708,3.388,5.124,3.388q2.072,0,4.116-1.302t3.052-3.206q0.448-0.812,0.448-1.82t-0.798-1.918t-2.002-1.33q-0.56-0.084-1.792-0.238t-1.232-0.518q0-0.14,0.112-0.252q0.336-0.392,0.868-0.392q0.308,0,0.602,0.112t0.462,0.168t0.392,0.14q0.616,0.056,1.064,0.056q1.848,0,3.36-0.588q1.932-0.756,2.464-2.268q0.336-0.98,0.336-1.764q0-1.932-1.876-2.884q-1.624-0.84-4.452-0.84q-4.452,0-7.98,1.68q-1.792,0.84-3.402,2.492t-1.61,2.828q0,0.812,0.42,1.344q0.168,0.224,0.588,0.56q0.14,0.084-0.168,0.084q-1.736-0.392-1.736-2.324t1.96-3.64q1.456-1.26,3.276-2.044q3.78-1.624,8.596-1.624q3.444,0,5.488,1.008q2.38,1.12,2.38,3.388q0,0.896-0.364,1.82q-0.588,1.68-3.052,2.548q-1.848,0.644-3.976,0.672q1.652,0.084,2.786,1.218t1.134,2.814z M249.1721,30.472q-0.028,0-0.14,0.056q-2.072,2.996-2.072,4.816q0,0.756,0.364,1.372q0.084,0.14,0.28,0.14q0.896,0,3.444-2.548l-0.084-0.112q-1.12-3.724-1.792-3.724z M278.96886,28.428l0.392-0.084q0.308,0,0.588,0.252t0.28,0.392t-1.736,2.702t-1.736,3.57q0,0.084,0.028,0.168q0.14,0.644,0.616,0.644q1.456,0,5.32-4.816q0.084-0.112,0.196-0.112t0.112,0.21t-0.252,0.546q-3.584,4.788-5.46,4.788q-0.252,0-0.476-0.084q-1.232-0.476-1.232-1.848q0-0.476,0.112-0.952l-1.736,1.68q-1.652,1.456-2.394,1.456t-1.414-0.476q-0.756-0.56-0.756-1.484q0-2.044,2.856-4.886t5.236-2.842q0.924,0,1.232,0.644q0.084,0.224,0.14,0.378t0.084,0.154z M270.59686,35.316q0,1.008,0.7,1.008q1.624,0,4.424-3.556l2.968-4.088q-0.224-0.392-0.728-0.392q-1.708,0-4.536,2.646t-2.828,4.382z M288.15762,36.94q-2.1,0-2.1-2.324q0-1.176,0.616-2.576t1.344-2.352q-0.14,0.028-0.364,0.028q-0.672,0-1.12-0.952l-2.072,2.688q-1.736,2.156-2.016,2.156q-0.14,0-0.14-0.112q0-0.28,0.476-0.812q2.436-2.828,3.444-4.788q0.644-2.436,1.624-2.436q0.644,0,0.644,0.56t-0.7,1.428l-0.672,0.896q0,0.588,0.868,0.588q0.504,0,1.12-0.364l0.728-0.448q0.056-0.028,0.28-0.028t0.476,0.28t0.168,0.504l-1.932,2.436q-1.792,2.296-1.792,3.626t1.232,1.33q1.288,0,3.164-1.372q1.12-0.812,2.044-1.82q0.868-1.008,0.952-1.008q0.196,0,0.196,0.21t-0.252,0.49l-0.896,1.008q-0.756,0.784-1.68,1.512q-2.212,1.652-3.64,1.652z"/></svg>
